<?xml version="1.0" encoding="utf-8"?>
<!-- Generator: Adobe Illustrator 22.1.0, SVG Export Plug-In . SVG Version: 6.00 Build 0)  -->
<svg version="1.1" id="Layer_1" xmlns="http://www.w3.org/2000/svg" xmlns:xlink="http://www.w3.org/1999/xlink" x="0px" y="0px"
	 viewBox="0 0 727 425" style="enable-background:new 0 0 727 425;" xml:space="preserve">
<style type="text/css">
	.st0{fill:#F2C879;}
	.st1{fill:#49545A;}
	.st2{fill:#555555;}
	.st3{fill:#CCCCCC;}
</style>
<g>
	<rect class="st0" width="727" height="425"/>
</g>
<path class="st1" d="M16.3,54h2.2v1.5h-2.2v3.1H14v-3.1H6.9v-1.1l6.9-9.4h2.4L16.3,54L16.3,54z M9.3,54H14v-6.4h-0.1L13.7,48L9.3,54
	z M31,53.7c0,1.5-0.5,2.8-1.4,3.7s-2.2,1.4-3.8,1.4c-1.6,0-2.9-0.5-3.8-1.4c-1-0.9-1.5-2.1-1.5-3.7v-4c0-1.5,0.5-2.8,1.5-3.6
	c0.9-0.9,2.2-1.4,3.8-1.4c1.6,0,2.8,0.5,3.8,1.4c0.9,0.8,1.4,2.1,1.4,3.6V53.7z M28.8,49.4c0-1-0.3-1.8-0.7-2.3
	c-0.6-0.5-1.3-0.8-2.2-0.8c-1,0-1.8,0.3-2.2,0.8c-0.6,0.5-0.8,1.3-0.8,2.3v4.8c0,1,0.3,1.8,0.8,2.4c0.6,0.5,1.2,0.8,2.2,0.8
	c0.9,0,1.7-0.3,2.2-0.8c0.5-0.6,0.7-1.4,0.7-2.4V49.4z M12.6,119.9c1,0,1.8-0.2,2.1-0.6c0.5-0.5,0.7-1,0.7-1.8
	c0-0.7-0.3-1.2-0.7-1.6c-0.5-0.5-1.1-0.7-2-0.7c-0.8,0-1.6,0.2-2.1,0.7c-0.6,0.5-0.8,1-0.8,1.6H7.6l0,0c-0.1-1.1,0.4-1.9,1.4-2.6
	c0.9-0.8,2.2-1.2,3.7-1.2c1.6,0,2.8,0.4,3.7,1c0.8,0.6,1.3,1.6,1.3,2.8c0,0.6-0.2,1.2-0.7,1.7c-0.4,0.5-0.9,0.9-1.7,1.2
	c0.8,0.3,1.5,0.7,2,1.3c0.4,0.5,0.7,1.2,0.7,2c0,1.2-0.6,2.2-1.5,2.9c-0.9,0.7-2.1,1.1-3.7,1.1c-1.4,0-2.6-0.3-3.7-1
	c-1-0.7-1.6-1.6-1.5-2.8l0,0h2.2c0,0.6,0.3,1.2,0.8,1.6c0.6,0.5,1.3,0.7,2.2,0.7s1.7-0.2,2.1-0.7c0.6-0.5,0.9-1.1,0.9-1.8
	c0-0.8-0.3-1.5-0.8-1.9s-1.2-0.6-2.3-0.6h-1.8v-1.4h1.7C12.6,119.8,12.6,119.9,12.6,119.9z M31,122.8c0,1.5-0.5,2.8-1.4,3.6
	c-0.9,0.9-2.2,1.4-3.8,1.4c-1.6,0-2.9-0.5-3.8-1.4c-1-0.8-1.5-2.1-1.5-3.6v-4c0-1.5,0.5-2.8,1.5-3.7c0.9-0.9,2.2-1.4,3.8-1.4
	c1.6,0,2.8,0.5,3.8,1.4c0.9,0.9,1.4,2.2,1.4,3.7V122.8z M28.8,118.5c0-1-0.3-1.8-0.7-2.4c-0.6-0.5-1.3-0.8-2.2-0.8
	c-1,0-1.8,0.3-2.2,0.8c-0.6,0.6-0.8,1.4-0.8,2.4v4.8c0,0.9,0.3,1.8,0.8,2.3c0.6,0.5,1.2,0.8,2.2,0.8c0.9,0,1.7-0.3,2.2-0.8
	s0.7-1.3,0.7-2.3V118.5z M18,196.7H7.8v-1.3l5.2-5.1c0.9-0.9,1.6-1.7,1.9-2.2c0.4-0.5,0.5-1.1,0.5-1.6c0-0.6-0.2-1.2-0.6-1.5
	c-0.5-0.5-1-0.6-1.9-0.6s-1.7,0.2-2.2,0.7s-0.7,1.2-0.7,1.8H7.7l0,0C7.6,185.7,8,184.8,9,184c0.9-0.8,2.2-1.2,3.8-1.2
	c1.5,0,2.7,0.3,3.6,1c0.8,0.7,1.2,1.5,1.2,2.6c0,0.7-0.2,1.5-0.7,2.1c-0.5,0.7-1.2,1.6-2.2,2.6l-4.2,4l0.1,0.1H18V196.7z M31,191.9
	c0,1.5-0.5,2.8-1.4,3.7s-2.2,1.3-3.8,1.3c-1.6,0-2.9-0.4-3.8-1.3c-1-0.9-1.5-2.2-1.5-3.7v-4c0-1.5,0.5-2.8,1.5-3.6
	c0.9-0.9,2.2-1.4,3.8-1.4c1.6,0,2.8,0.5,3.8,1.4c0.9,0.8,1.4,2.1,1.4,3.6V191.9z M28.8,187.5c0-1-0.3-1.8-0.7-2.3
	c-0.6-0.6-1.3-0.8-2.2-0.8c-1,0-1.8,0.2-2.2,0.8c-0.6,0.5-0.8,1.3-0.8,2.3v4.8c0,1,0.3,1.8,0.8,2.3c0.6,0.6,1.2,0.9,2.2,0.9
	c0.9,0,1.7-0.3,2.2-0.9c0.5-0.5,0.7-1.3,0.7-2.3V187.5z M14.1,265.8h-2.2v-11.9H8.3v-1.4l5.8-0.5V265.8z M31,261
	c0,1.5-0.5,2.8-1.4,3.6c-0.9,0.9-2.2,1.4-3.8,1.4c-1.6,0-2.9-0.5-3.8-1.4c-1-0.8-1.5-2.1-1.5-3.6v-4c0-1.5,0.5-2.8,1.5-3.7
	c0.9-0.9,2.2-1.4,3.8-1.4c1.6,0,2.8,0.5,3.8,1.4c0.9,0.9,1.4,2.2,1.4,3.7V261z M28.8,256.6c0-1-0.3-1.8-0.7-2.4
	c-0.6-0.5-1.3-0.9-2.2-0.9c-1,0-1.8,0.3-2.2,0.9c-0.6,0.6-0.8,1.4-0.8,2.4v4.8c0,0.9,0.3,1.7,0.8,2.3c0.6,0.5,1.2,0.8,2.2,0.8
	c0.9,0,1.7-0.3,2.2-0.8s0.7-1.4,0.7-2.3V256.6z M17.9,330c0,1.5-0.5,2.8-1.5,3.7c-0.9,0.8-2.2,1.3-3.8,1.3s-2.9-0.5-3.8-1.3
	c-0.9-0.9-1.4-2.2-1.4-3.7v-4c0-1.5,0.5-2.8,1.4-3.7c0.9-0.8,2.2-1.3,3.8-1.3s2.9,0.5,3.8,1.3c1,0.9,1.5,2.2,1.5,3.7V330z
	 M15.7,325.6c0-1-0.3-1.8-0.9-2.3c-0.6-0.6-1.3-0.9-2.2-0.9s-1.7,0.2-2.2,0.9c-0.5,0.5-0.7,1.3-0.7,2.3v4.8c0,1,0.3,1.8,0.7,2.3
	c0.6,0.6,1.3,0.9,2.2,0.9c1,0,1.8-0.3,2.2-0.9c0.6-0.5,0.9-1.3,0.9-2.3V325.6z"/>
<rect x="43.3" y="327.1" class="st2" width="660.4" height="4.4"/>
<rect x="43.2" y="7.5" class="st2" width="4.9" height="319.6"/>
<path id="Color1" class="st3" d="M583.7,386.4c0.8,3.5,1.6,13.6-2.2,22.5c-1.2,2.8,3,5.2,4.8,1.5c10.5-20.8,6.5-39,4-50.8
	c-0.5-4-2.8-6.8-6.8-4.8c-2.8,1.2-3.4,1.1-5.1,2.4c-2.3-4-6-6-11.2-6.3c-7.3,0-13.6,6.3-13.6,13.6c0,7.3,5.9,13.2,13.2,13.2
	c2.6,0,5-0.7,7-2l2,2.3c-2.6,1.7-5.7,2.8-9,2.8c-8.9,0-16.2-7.2-16.2-16.2c0-6,3.3-11.2,8.1-14c-5.2-2.6-51.7-7.9-42.9,37.6h5
	l7,27.8h8.2l1.8-12c3,1.2,11.5,1.8,16.2,1.2V416h10.5v-14.2c2.5-2,10.5-10.2,12.2-14.8v5.8C579.7,391.6,582.7,388.1,583.7,386.4z
	 M586.7,365.6c1,0,1.9,0.8,1.9,1.9s-0.8,1.9-1.9,1.9c-1,0-1.9-0.8-1.9-1.9S585.6,365.6,586.7,365.6z"/>
<path id="Color1_1_" class="st3" d="M127.8,335.7l0.2,2.2l7.9,5.7c0.7,0.5,0,1.7-1.3,1.2l-7.1-2.2c-1.1-0.3-2.5-0.7-4.1,0.1
	c-1.7,0.8-15.4,8.1-16.8,8.8c-1.4,0.7-2.5,1.5-3.5,2.4c-1.1,0.9-5.7,4.8-5.7,4.8l0.2,18.2c0,0.9-0.5,2.2-1.3,2.8l0.8,10.6
	c0,0.6-0.2,0.8-0.2,1.3l4.5,22c1,0.8,1.6,1.9,0.5,2h-1c-0.7,0.1-0.7-0.8-0.5-1.3c0.1-0.4,0.2-0.6,0.1-1.3l-4.8-21.1
	c-0.8-0.1-1.1-0.5-1.4-1.6l-2.7-8.9l-1.7,9.4c-0.2,1-0.5,1.3-1.2,1.7l-1.9,21.3c0.6,0.6,0.7,1.7-0.1,1.7h-1.2
	c-0.7,0-0.6-1.4,0.2-1.7l1.9-21.4c-1-0.1-0.8-0.6-0.9-1.2s0.1-10.9,0.1-10.9c-1.3,0-6.1-0.4-7.3-0.6c-1,0.7-5.7,6.8-6.4,9.3
	c-0.8,2.5-2.5,4.4-0.1,11.3l4.7,13.1c0.9,0.2,1.3,0.6,1.3,1.3c0,0.3-0.7,0.7-1,0.7s-1.3-0.2-1.1-1.6l-8.6-22.6
	c1.2-0.9,5.6-6.8,3.5-10.6c-1.7,1.5-5.2,7.6-5.3,10.8c-0.1,3.2,0.1,5.2,1.3,9.1l4.5,12.7c0.8,0.5,1.5,2,0.4,2h-1
	c-0.7-0.1-0.9-1.1-0.4-1.6l-8.4-21.9c1.1-1.5,2.5-7.8,0.3-12.6c-1-1.6-2.7-6.8-2-8.3c-1,0.1-2.5,1.3-2.6,2.5
	c-0.1,1.3-0.5,3.9-0.8,6.2c-0.2,2.4-0.7,4.2-3.1,5.2c-0.7,0.8-2.2,1.1-3.9,0.7c0.5-0.9,1-1.7,3.8-1.5c1-0.6,2.2-1.7,2.4-3.7
	c0.1-2-0.4-9.8,3.7-10.8c1.7-1.7,5.5-3.8,9.2-5.5c5.5-2.9,52.6-25.4,55.9-26.8c-0.4-0.3-0.9-1.1-0.9-2c0.8,0.1,1.5,0.4,1.8,0.8
	c0-0.5,0.2-1.3,0.6-1.7C127.2,335.2,127.7,335.4,127.8,335.7z"/>
<path id="Color1_3_" class="st3" d="M334.5,366.8c3-2.6,5.8-7.5,6.6-8.5c-1,0.4-6.3,0.8-11.2-0.1c-4.9-0.9-9.8-4.6-11.8-6.5
	c-1.5-1.1-1-1.4-4.9-2.5s-5.8-4.2-6.7-5.5s0.9-1.7,1.5-0.9c1,1.6,3.2,3.2,5.2,4.2c1.5,0.8,3.6,0.8,3.6-0.5s-0.6-5.7-0.9-7.1
	s1.4-1.2,1.9-0.3c0.5,1.5,1.9,7.2,1.9,8s-0.1,2.1,0.5,2.8c1.4,1.7,4.8,3.4,5.9,3.9c0.6-2.2-0.9-5.2-1.7-5.9
	c-0.8-0.7,0.4-1.1,1.5-0.6c2.7,1.9,3,6.1,3,7.8c3.9,1.8,9.2,1.3,11.4,0.7c-7.2-2.8-10.6-6.6-12.1-8c-1.5-1.5-2.1-1.7-3.7-1.7
	c-8.5,0.2-9.8-1.1-12.1-2.7c-2.3-1.6,0.5-2.2,1.3-1.6c1.5,1.1,4.1,2.5,8.9,2.3c2.6,0,3-1.1,2.8-2.1c-0.1-0.9-0.4-4.6-0.1-6.2
	c0.3-1.8,2.1-0.9,2.1,0.1c0,10.5,6.7,13.4,8.5,14.5s3.4,0.8,4.1,0.2c3.2-2.4-0.4-6.5-1-7c-0.8-0.7,0-1.5,1.3-0.7
	c6.5,3.5,2.6,8.7,1,9.5c0,0.3-0.9,1.5,3.6,1.6s4.1-3.6,3.7-4.6c-0.5-1.5,1.2-1.4,1.7-0.7c0.6,0.7,0.8,2.6,0.9,3.4
	c0.3-0.6,0.5-1.8,0.5-2.4c-0.1-1.4,1.7-0.7,1.9,0c0.1,0.7-0.3,2.6-0.4,3.6c0.5-0.2,1.4-0.9,1.8-1.7c0.4-0.7,2.1-0.7,1.7,0.3
	c-0.8,2.7-5.4,3.9-6.8,4s-0.6,1.2,0.3,1.2s1.9-0.1,3,0.7c1,0.7,6.7,2.7,9.2,3.5c2.6,0.8,2.3,2.1,1.4,3.2s-2.5,1.8-5,1.8
	s-6.1,0.7-7.4,1.7c-1.3,1.7-5.4,9.8-6.2,10.7c-0.8,0.8-1.9,0.9-2.5,2.2c-0.5,1.2-1.2,2.4-2.2,3c1.4,0.3,4.6,1.3,7.5,2.4
	c2.8,1.1,1.5,4.2,0,5c-1.5,0.7-5.8,2.5-7.1,3.1c-1.3,0.6-6.6,2.5-7.6,3.3c-1,0.7-7.6,1.5-11.9,1.9s-0.6-3.5,1-3.7s3.9-0.5,5.7-0.7
	c6.7-1.3,13.2-4.7,14.6-5.8c-2.8-0.1-6.8-0.7-7.7-0.9c-2.8-0.7-4.3,1.4-4.8,2.7s-7.5,15.5-8.4,17.8c-0.9,2.2,0.3,3.9,1.5,5.3
	c1.3,1.4-0.6,1.6-2.2,1.6c-1.5,0-2.5-0.3-2.7-1.2c-0.3-0.9-0.1-2.1-1-3.2s-0.8-1.7-0.1-2.6c1.8-2.6,5.9-16,6.6-17.9
	c0.6-1.9-0.8-2.4-2.3-2.4c-2.7,0-9.9-0.9-11.5-1.3c-1.5-0.4-2.8,0.3-2.8,1.3c-0.3,3.2-4.1,5.8-5.4,6.8s-0.9,1.4,0.1,1.9
	c4.9,1.8,16.1,6.7,17.7,7.7c1.5,0.9,1.4,2.1,0.9,2.5s-1.9,1-2.7,0.5c-0.8-0.6-1.9-1.3-2.6-1.6s-1.7-0.2-2.3-0.7
	c-2.6-1.5-6.2-2.8-7.6-3.4c1.8,1.9,6.8,6.5,7.5,7.7l1.4,3h-2.6c-1.7,0-3.7-0.8-3.6-2.6c0.1-1.8-2.1-2.2-2.7-2.8
	c-0.6-0.6-5.8-6.4-7-7.6c-0.4-0.1-3.2-1.1-4.4-1.3c-3.4-1-2.5-3.5-1.4-4.1c1.8-1.7,3.2-3.9-0.1-5.8s-6.8-6.7-7.1-7.3
	s-1.8-1.5-2.6-1.5c-2.5-11.2,12.8-13.7,16.3-13.8c3.5-0.1,15.2,1.6,18.3,2c3.1,0.4,6.9,0.2,9.2-0.3c1.8-0.4,3.6-0.5,5.1-0.4
	C332.4,367.5,333.4,367.6,334.5,366.8z"/>
<path id="Color1_4_" class="st3" d="M674.2,400c0.6,2.6,3.4,13,4.2,15.9h10.8c0.1-2.6-3.4-4.2-5-4.4v-11.2
	c5.8-1.5,10.2-5.2,12.8-6.6s10.5-3.2,12.6-2.1s8.1,4.1,8.4-0.2c1.9-0.8,2.1-2,2.5-2.8s0-2.2-1.8-3.1s-2.4-1.6-3-3.1
	c-0.6-2.9-7.1-5.6-10.1-4.8c-2.3,0.7-3.8-0.2-4.2-0.6s-2.2-0.5-2,0.9s-1.2,3-3.6,2c-1.2-0.8-8.9-3-12.5-2.2s-7,0.5-10.5-0.5
	s-14.2-3.8-21.6-1s-10.4,4.5-14,11.8s-8.2,13.9-13.1,15.1c-1.6,0.4-3.1,0.6-2.9-1.2c0.1-0.9-0.6-1.6-2-1.4s-2,1.5-1.8,3.1
	c0.4,1.8,3.4,4.2,9.4,2c2.2-0.9,7.2-5,9.9-10.2s4.2-7.1,5.8-8.1c0.6,2-1,11.5-9,15.2c-1.1,0.5-2.1,1.5-1.6,3l3.2,10.6h8.9
	c0.1-2.5-0.8-4.6-2.6-5.1s-1.8-1.2-2-2s-0.6-4.2,1.9-5c1.7-0.5,13.8-5.6,15.6-8.1c1.1-1.5,4.5-2.5,7-0.8S670.1,399.9,674.2,400z"/>
<path id="Color1_5_" class="st3" d="M494,341.6c-7.9,3.7-12,11.6-88.5,4.8c-4.2-0.4-12.4-3.3-15.3,11.1l-4.8,23.1
	c-0.4,2.1-3.4,8.2-1.4,14.2c1.7-1.8,3-5,3.2-6.3c0.1-1.4-0.6-4.2,0.1-8.7l4-18.8l7.2,19.4c0.8,1.5-0.1,5.1-0.9,7.4s-0.6,5.7,0,9
	l3.4,18.9h3.5l-0.9-22.2c0-1.2,0.6-2.6,1.8-3.1c1.2-0.6,4.8-4.6,5.2-5.5c0.6,0.3,2,1,2,1c-0.6,1-3.2,5.1-6.2,7l7.1,22.7h2.9
	l-3.9-19.4c-0.3-1.8,0.1-3.1,1.5-4.4c1.4-1.2,2.7-3.1,3.1-3.9c0.3-0.5,1.3-1.3,2.6-0.1c1.3,1.2,2.6-0.1,3.1-0.4
	c0.4-0.3,4.5-1.6,9.2-1.6s9.8,1.8,15.5,4.9l0.8,25.1h2.9l2.1-19.6c0.1-1.2,1.4-1.8,1.8,0.1c0.4,2,2.2,16.6,2.2,19.4h3.1l0.5-26.1
	c3.8-1.6,12-11.4,13.5-15.3c1.5,0.1,5.6,0,7.1-1.8c0.6-0.8,1.4-0.4,2.1-0.1l2.1,0.9c0.8,0.3,2.2,0.3,2.7-0.4
	c0.5-0.7,1.8-2.2,2.2-2.9c0.4-0.6,0.8-1.5-0.2-3.2c-0.6-1.2-2.3-3.8-3.4-5c-1-1.1-1.6-3.1-1.6-4.6c-0.1-1.6,0.2-4.8-0.4-6.2
	C486.7,350.2,493.6,344.4,494,341.6z"/>
<path id="Color1_2_" class="st3" d="M259.9,388.5c1.1,0.5,3.4,1.1,4.1,0c0.6-1.1,1.7-2.6,1.8-3.3c0.1-0.7,0.9-1.8-1.6-2.8
	s-3.5-2.6-4.2-3.1c-0.6-0.5-1.1-1.1-1-1.7s-0.7-4.4-3.3-5.7c-2.6-1.3-3.8-2.1-7.9-2.6c-1.6-0.1-5.3-2.2-6.2-3.5s-2.2-2-4.2-1.9
	c-1-0.9-4.9-3.1-7-2.7c-3-1.5-6.8-4.5-13.7-3.8c-6.8,0.6-22,1.1-25.4,0.9s-21.1-2.1-24.6,7.3c-2.1,2.6-8.1,11.1-9.8,22
	s-4.7,14.5-5.6,16c-1.5,1.9-0.2,4.9,1.5,5.6c1.7,0.6,3,3,3.6,4.3s3.2,1.9,4.7,1.9c1.7,0.1,4.4-1.7,1-5c0.3-0.4,0.7-2.3-0.4-3.7
	c1.5-1.2,6.9-5,7.8-5.9s3.2-2.8,5.3-2.5s3.6,0.7,4.6,2.5s3.3,6.5,4.5,7.8s1.2,2,1,3.1s1.7,3.8,2.6,4.3h9.2c1.3,0,3-3.1,1.8-4.5
	s-3.4-4.5-3.4-6.4s-0.1-7.8-0.1-8.9s1.3-3.4,3.3-2.7c2,0.7,5.7,0.7,7,0.5c1.4-0.2,2.9,0.5,2.3,1.6c-0.5,1.1-2,3.8-3.5,5
	s-2.2,4.5-2.3,5.9s-1.9,4.1-2.5,4.6c-0.5,0.5-3.5,4.6,0.3,4.7s8.4-4.5,9.7-5.2s13-11.2,14.1-11.8c1.5,1,7.7,8.4,12,10.7
	c1.2,0.5,3.6,2.3,4.1,3.6c0.4,1.3,1.6,2.5,3.9,2.5h8.5c1.7,0,3.1-1.6,3.1-3s-2.7-3.1-5-2.5c-1.1-0.7-4.6-3.2-6-5.6
	c-1.4-2.3-2.7-3.9-3.2-4.4c0-1.1,0-3-0.4-4.1s-0.2-3.4,0.3-4.2c0.5-0.7,1.4-2.3,4.4-1.6c3,0.7,7.8,1.8,9.3,1.8s4.8-0.3,6.2-0.1
	c1.4,0.2,2.3-1.6,0.7-2c-1.6-0.4-1.7-0.2-2.1-0.5C258.9,389.1,258.9,388,259.9,388.5z"/>
<rect x="644.6" y="293.9" class="st3" width="48.7" height="30.9"/>
<rect x="299.2" y="151" class="st3" width="48.7" height="173.8"/>
<rect x="68.9" y="43.8" class="st3" width="48.7" height="281"/>
<rect x="184" y="79.3" class="st3" width="48.7" height="245.5"/>
<rect x="529.4" y="151.2" class="st3" width="48.7" height="173.6"/>
<rect x="414.3" y="97" class="st3" width="48.7" height="227.8"/>
</svg>
