<?xml version="1.0" encoding="utf-8"?>
<!-- Generator: Adobe Illustrator 22.1.0, SVG Export Plug-In . SVG Version: 6.00 Build 0)  -->
<svg version="1.1" id="Layer_1" xmlns="http://www.w3.org/2000/svg" xmlns:xlink="http://www.w3.org/1999/xlink" x="0px" y="0px"
	 viewBox="0 0 300 300" style="enable-background:new 0 0 300 300;" xml:space="preserve">
<style type="text/css">
	.st0{fill:#363D66;}
	.st1{fill:#5C453D;}
	.st2{fill:#62614F;}
	.st3{fill:#3F5765;}
	.st4{fill:#3F5247;}
	.st5{fill:#FFFFFF;}
	.st6{fill:#572A2F;}
	.st7{font-family:'Helvetica';}
	.st8{font-size:36.4941px;}
</style>
<rect class="st0" width="300" height="300"/>
<polygon class="st1" points="121.4,49.9 93.3,32.9 64.8,49.9 64.8,255.7 121.4,255.7 "/>
<polygon class="st2" points="178.5,49.9 149.9,32.9 121.4,49.9 121.4,255.7 178.3,255.7 "/>
<polygon class="st3" points="234.9,49.9 206.8,32.9 178.3,49.9 178.3,255.7 235,255.7 "/>
<polygon class="st4" points="292.1,49.9 263.5,32.9 235,49.9 235,255.7 291.9,255.7 "/>
<path class="st5" d="M267.7,73.8c0.7,0.4,1.1,0.9,1.4,1.4s0.5,1.1,0.5,1.8c0,1.3-0.5,2.3-1.4,3.1c-0.9,0.8-2.2,1.2-3.9,1.4V84h-1.6
	v-2.4c-2,0-3.7-0.4-5.1-1v-3.2c0.7,0.3,1.5,0.7,2.5,0.9c1,0.3,1.9,0.4,2.6,0.5v-3.6l-0.8-0.3c-1.6-0.6-2.7-1.3-3.4-2
	c-0.7-0.7-1-1.6-1-2.7s0.5-2.1,1.4-2.8c0.9-0.8,2.2-1.2,3.8-1.4v-2h1.6v1.8c1.8,0.1,3.5,0.5,5,1.1l-1.1,2.8
	c-1.2-0.5-2.5-0.8-3.8-0.9v3.5C265.9,72.8,267,73.4,267.7,73.8z M264.4,78.7c1.1-0.2,1.6-0.7,1.6-1.4c0-0.3-0.1-0.6-0.4-0.9
	c-0.3-0.2-0.7-0.5-1.2-0.7V78.7L264.4,78.7z M262.7,68.8c-1,0.2-1.5,0.6-1.5,1.2c0,0.4,0.1,0.7,0.4,0.9s0.6,0.5,1.2,0.7L262.7,68.8
	L262.7,68.8z"/>
<path class="st5" d="M105.3,69.8L94,74.9c-0.5,0.2-1.4,0.2-1.9,0l-11.3-5.1c-0.5-0.2-0.5-0.6,0-0.9l11.3-5.1c0.5-0.2,1.4-0.2,1.9,0
	l11.3,5.1C105.9,69.2,105.9,69.6,105.3,69.8z M94,76.1l8.3-3.8v7.4c0,2.6-4.1,4.6-9.2,4.6s-9.2-2.1-9.2-4.6v-7.4l8.2,3.8
	C92.7,76.3,93.5,76.3,94,76.1z"/>
<path class="st5" d="M214.1,61.2l-1.8,3c-0.2,0.4-0.8,0.6-1.2,0.3c-0.4-0.2-0.6-0.8-0.3-1.2l1.8-3c0.2-0.4,0.8-0.6,1.2-0.3
	C214.2,60.2,214.3,60.7,214.1,61.2z M206.7,63.3c-0.5,0-0.9-0.4-0.9-0.9v-3.5c0-0.5,0.4-0.9,0.9-0.9s0.9,0.4,0.9,0.9v3.5
	C207.5,62.9,207.2,63.3,206.7,63.3z M202.2,64.5c-0.4,0.2-0.9,0.1-1.2-0.3l-1.8-3c-0.2-0.4-0.1-0.9,0.3-1.2c0.4-0.2,0.9-0.1,1.2,0.3
	l1.8,3C202.8,63.8,202.7,64.3,202.2,64.5z M202,66.5h9.4c1,0,1.9,0.9,1.9,1.9v2.8c0,0.7-1.5,2.4-2.8,3.5v7.7c0,1-0.9,1.9-1.9,1.9
	h-0.9h-1.9h-0.9c-1,0-1.9-0.9-1.9-1.9v-7.7c-1.3-1.1-2.8-2.8-2.8-3.5v-2.8C200.1,67.4,200.9,66.5,202,66.5z M202.9,71.8L202.9,71.8
	L202.9,71.8c0.5,0.7,1,1.3,1.4,1.3h0.5v7.5c0,1,0.9,1.9,1.9,1.9s1.9-0.9,1.9-1.9v-7.5h0.5c0.4,0,0.9-0.6,1.4-1.3l0,0l0,0
	c0.3-0.4,0.5-0.8,0.7-1.1l0,0c0.1-0.1,0.1-0.3,0.2-0.4v-0.1c0-0.2,0.1-0.3,0.1-0.4c0-0.8-0.6-1.4-1.4-1.4h-6.6
	c-0.8,0-1.4,0.6-1.4,1.4c0,0.1,0,0.2,0.1,0.4v0.1c0,0.1,0.1,0.3,0.2,0.4l0,0C202.4,71.1,202.6,71.4,202.9,71.8z"/>
<path class="st5" d="M158,80.1h-16.1c-0.3,0-0.5-0.2-0.5-0.5v-9.4v-1.3v-0.8c0-0.2,0.1-0.3,0.3-0.3c0.1,0,0.3,0.1,0.3,0.3v0.3v1.1
	h0.3c0.1,0,0.3,0.1,0.3,0.3s-0.1,0.3-0.3,0.3H142v0.3V71h0.3c0.1,0,0.3,0.1,0.3,0.3s-0.1,0.3-0.3,0.3H142v1.6h0.3
	c0.1,0,0.3,0.1,0.3,0.3s-0.1,0.3-0.3,0.3H142v1.6h0.3c0.1,0,0.3,0.1,0.3,0.3c0,0.2-0.1,0.3-0.3,0.3H142v1.6h0.3
	c0.1,0,0.3,0.1,0.3,0.3c0,0.2-0.1,0.3-0.3,0.3H142V79c0,0.3,0.2,0.5,0.5,0.5h1.1v-0.3c0-0.2,0.1-0.3,0.3-0.3c0.1,0,0.3,0.1,0.3,0.3
	v0.3h1.6v-0.3c0-0.2,0.1-0.3,0.3-0.3s0.3,0.1,0.3,0.3v0.3h1.6v-0.3c0-0.2,0.1-0.3,0.3-0.3s0.3,0.1,0.3,0.3v0.3h1.6v-0.3
	c0-0.2,0.1-0.3,0.3-0.3s0.3,0.1,0.3,0.3v0.3h1.6v-0.3c0-0.2,0.1-0.3,0.3-0.3s0.3,0.1,0.3,0.3v0.3h1.6v-0.3c0-0.2,0.1-0.3,0.3-0.3
	s0.3,0.1,0.3,0.3v0.3h1.6v-0.3c0-0.2,0.1-0.3,0.3-0.3c0.1,0,0.3,0.1,0.3,0.3v0.3h1.6C158.5,79.9,158.3,80.1,158,80.1z M156.4,73.4
	v4.8c0,0.2-0.1,0.3-0.3,0.3c-0.1,0-0.3-0.1-0.3-0.3v-4.8c0-0.2,0.1-0.3,0.3-0.3C156.2,73.2,156.4,73.3,156.4,73.4z M152.1,75.6v2.7
	c0,0.2-0.1,0.3-0.3,0.3s-0.3-0.1-0.3-0.3v-2.7c0-0.2,0.1-0.3,0.3-0.3S152.1,75.4,152.1,75.6z M147.8,73.4v4.8c0,0.2-0.1,0.3-0.3,0.3
	c-0.1,0-0.3-0.1-0.3-0.3v-4.8c0-0.2,0.1-0.3,0.3-0.3C147.7,73.2,147.8,73.3,147.8,73.4z M144.6,77.7v1.1c0,0.2-0.1,0.3-0.3,0.3
	c-0.1,0-0.3-0.1-0.3-0.3v-1.1c0-0.2,0.1-0.3,0.3-0.3C144.4,77.5,144.6,77.6,144.6,77.7z M156.1,72.6c-0.1,0-0.3,0-0.4-0.1l-3.2,1.8
	c-0.1,0.3-0.4,0.5-0.7,0.5c-0.4,0-0.7-0.2-0.8-0.6l-3.3-2.2c0,0,0,0-0.1,0l-2.7,3.8c0,0.1,0.1,0.2,0.1,0.3c0,0.5-0.4,0.8-0.8,0.8
	c-0.5,0-0.8-0.4-0.8-0.8s0.3-0.7,0.6-0.8l2.6-3.8c0-0.1,0-0.2,0-0.3c0-0.5,0.4-0.8,0.8-0.8c0.4,0,0.7,0.3,0.8,0.6l3.2,2.2
	c0.1,0,0.2-0.1,0.3-0.1s0.3,0,0.4,0.1l3.2-1.8c0.1-0.3,0.4-0.5,0.7-0.5c0.5,0,0.8,0.4,0.8,0.8C156.9,72.3,156.5,72.6,156.1,72.6z
	 M156.1,70.5c-0.1,0-0.3-0.1-0.3-0.3V68c0-0.2,0.1-0.3,0.3-0.3s0.3,0.1,0.3,0.3v2.2C156.4,70.4,156.2,70.5,156.1,70.5z M151.8,72.6
	c-0.2,0-0.3-0.1-0.3-0.3V68c0-0.2,0.1-0.3,0.3-0.3s0.3,0.1,0.3,0.3v4.3C152.1,72.5,151.9,72.6,151.8,72.6z M147.5,69.9
	c-0.1,0-0.3-0.1-0.3-0.3V68c0-0.2,0.1-0.3,0.3-0.3s0.3,0.1,0.3,0.3v1.6C147.8,69.8,147.7,69.9,147.5,69.9z M144.3,74.3
	c-0.1,0-0.3-0.1-0.3-0.3v-5.9c0-0.2,0.1-0.3,0.3-0.3s0.3,0.1,0.3,0.3V74C144.6,74.1,144.4,74.3,144.3,74.3z"/>
<polygon class="st6" points="65,49.9 36.4,32.9 7.9,49.9 7.9,255.7 64.8,255.7 "/>
<path class="st5" d="M39.2,69.1h-2.7h-2.7c0,0-1.8-2.7-1.8-3.7s0.9-1.8,4.6-1.8c3.7,0,4.6,0.9,4.6,1.8C41,66.4,39.2,69.1,39.2,69.1z
	 M38.3,70L41,87.5c0,0-3.7,3.7-4.6,3.7c-0.9,0-4.6-3.7-4.6-3.7L34.6,70H38.3z"/>
<text transform="matrix(1 0 0 1 15.2466 237.4071)" class="st5 st7 st8">01</text>
<text transform="matrix(1 0 0 1 75.6411 237.4071)" class="st5 st7 st8">02</text>
<text transform="matrix(1 0 0 1 131.7378 237.4071)" class="st5 st7 st8">03</text>
<text transform="matrix(1 0 0 1 191.6567 237.4071)" class="st5 st7 st8">04</text>
<text transform="matrix(1 0 0 1 248.8276 237.4071)" class="st5 st7 st8">05</text>
</svg>
