<?xml version="1.0" encoding="utf-8"?>
<!-- Generator: Adobe Illustrator 22.1.0, SVG Export Plug-In . SVG Version: 6.00 Build 0)  -->
<svg version="1.1" id="Layer_1" xmlns="http://www.w3.org/2000/svg" xmlns:xlink="http://www.w3.org/1999/xlink" x="0px" y="0px"
	 viewBox="0 0 500 374.5" style="enable-background:new 0 0 500 374.5;" xml:space="preserve">
<style type="text/css">
	.st0{fill:#97B8AB;}
	.st1{fill:#45F2FF;}
	.st2{fill:#1400E7;}
	.st3{fill:#D00005;}
	.st4{fill:#51FF45;}
	.st5{fill:#888888;}
	.st6{fill:#999999;}
	.st7{fill:#555555;}
</style>
<rect y="0" class="st0" width="500" height="374.5"/>
<path class="st1" d="M18.8,222.1c0,0,35.5-34.3,66.7,10c0,0,5.5-26.8,44.1-31.5c18,0,32.7-14.6,32.7-32.7c0-18-14.6-32.7-32.7-32.7
	C129.7,135.3,43.5,131.7,18.8,222.1z"/>
<path class="st2" d="M146.1,204.5c0,0,26.9,5.3,31.9,43.9c0.2,18,14.9,32.5,32.9,32.4c18-0.2,32.5-14.9,32.4-32.9
	c0,0,2.9-86.2-87.8-110.1C155.5,137.7,190.2,172.9,146.1,204.5z"/>
<path class="st3" d="M96,328.3c-0.3,18,14.1,32.9,32.1,33.2c0,0,86.1,5,112.2-85.1c0,0-36.1,33.7-66.6-11.1c0,0-6,26.7-44.6,30.8
	C111.2,295.8,96.3,310.2,96,328.3z"/>
<path class="st4" d="M101.2,360c0,0-33.7-36.1,11.2-66.5c0,0-26.7-6-30.7-44.7c0.3-18-14-32.9-32.1-33.2c-18-0.3-32.9,14-33.2,32.1
	C16.3,247.7,11.2,333.8,101.2,360z"/>
<path class="st5" d="M268.2,38.9C260.7,24.1,245,27.4,245,27.4c1.3,13.6,14.4,15.5,21,15.7V59c-6.4-9.8-22.4-8-22.4-8
	c5,15,17.2,16.1,22.4,15.8V88h3.3V43.2c4.9,0.4,17.7-0.3,22.9-15.8C292.2,27.5,272.7,25.2,268.2,38.9z"/>
<path class="st5" d="M304.5,60.8c-6-11.9-18.6-9.2-18.6-9.2c1,10.9,11.5,12.5,16.9,12.5v11.7h2.6V64.3c3.9,0.3,14.2-0.2,18.3-12.6
	C323.7,51.7,308.1,49.9,304.5,60.8z"/>
<path class="st5" d="M217.1,74.4V55.9c4.8,0.2,15.1-1.1,19.4-14c0,0-13.5-1.6-19.4,6.4V24.5c4.4,0.3,15.7-0.2,20.3-14
	c0,0-17.3-2-21.3,10.1c-6.7-13.1-20.6-10.2-20.6-10.2c1.1,12,12.8,13.8,18.7,13.9v25.8c-7-11-19.5-8.4-19.5-8.4
	c1.2,12.7,14,13.9,19.5,13.9v56h2.9V81c4.5,0.3,15.5-0.5,20.1-14C237.2,67,222.6,65.3,217.1,74.4z"/>
<rect x="338.1" y="264.7" class="st6" width="123.5" height="30.9"/>
<rect x="303.5" y="264.7" class="st7" width="34.6" height="30.9"/>
<rect x="303.5" y="173.6" class="st7" width="178.2" height="30.9"/>
<rect x="481.7" y="173.6" class="st6" width="13.2" height="30.9"/>
<rect x="303.6" y="218" class="st7" width="155.6" height="30.9"/>
<rect x="459.1" y="218" class="st6" width="17.5" height="30.9"/>
<rect x="320.9" y="311.4" class="st6" width="110" height="30.9"/>
<rect x="303.5" y="311.4" class="st7" width="17.3" height="30.9"/>
</svg>
