<?xml version="1.0" encoding="utf-8"?>
<!-- Generator: Adobe Illustrator 22.1.0, SVG Export Plug-In . SVG Version: 6.00 Build 0)  -->
<svg version="1.1" id="Layer_1" xmlns="http://www.w3.org/2000/svg" xmlns:xlink="http://www.w3.org/1999/xlink" x="0px" y="0px"
	 viewBox="0 0 300 300" style="enable-background:new 0 0 300 300;" xml:space="preserve">
<style type="text/css">
	.st0{fill:#70656C;}
	.st1{fill:#7A6E72;}
	.st2{fill:#7A706E;}
	.st3{fill:#706865;}
	.st4{fill:#636363;}
	.st5{fill:#FFFFFF;}
	.st6{font-family:'Helvetica';}
	.st7{font-size:30px;}
</style>
<rect x="-1" y="0" width="300" height="300"/>
<path class="st0" d="M58,238.2c0,0-9.6,19.2,6.5,22c0,0,12.5,2.1,38.2-3.3c0,0,13.9-4.3,12.5,10.3l-2,15.7c0,0,11.2,12.5,55.5,10.6
	c0,0,56.5-2.5,65.4-19.6v-35.9L58,238.2L58,238.2z"/>
<path class="st1" d="M35.2,181.2c0,0-0.6,3.3,14.6,9.8c0,0,7.4,5.5,0,13c0,0-1.6,5.7,9.9,10.5c0,0-8.1,6.4-7.8,8.7
	c0,0,4.8,7.8,6.2,9.6c0,0,2.2,2.6-0.1,5.4h176.2c0,0-0.7-17,2.5-28.5c0,0,1.5-14.8,9.1-28.5L35.2,181.2L35.2,181.2z"/>
<path class="st2" d="M60.5,126.1c0,0,1.2,8.9-4.4,14.5c0,0-36.4,34.3-20.8,40.6h210.7c0,0,18.8-29,20.8-55.1H60.5L60.5,126.1z"/>
<path class="st3" d="M64.6,69.4c0,0-16.1,43.8-4.1,56.7h206.1c0,0,6.4-30.4-3.5-56.7C263.1,69.4,64.6,69.4,64.6,69.4z"/>
<path class="st4" d="M64.6,69.4c0,0,25-57.4,99.4-53.8c0,0,77.9,1.4,99.2,53.8H64.6z"/>
<text transform="matrix(1 0 0 1 95.8185 58.293)" class="st5 st6 st7">01</text>
<text transform="matrix(1 0 0 1 199.9171 108.7773)" class="st5 st6 st7">02</text>
<text transform="matrix(1 0 0 1 95.8185 165.0649)" class="st5 st6 st7">03</text>
<text transform="matrix(1 0 0 1 202.2091 220.1938)" class="st5 st6 st7">04</text>
</svg>
