<?xml version="1.0" encoding="utf-8"?>
<!-- Generator: Adobe Illustrator 22.1.0, SVG Export Plug-In . SVG Version: 6.00 Build 0)  -->
<svg version="1.1" id="_x31_" xmlns="http://www.w3.org/2000/svg" xmlns:xlink="http://www.w3.org/1999/xlink" x="0px" y="0px"
	 viewBox="0 0 300 300" style="enable-background:new 0 0 300 300;" xml:space="preserve">
<style type="text/css">
	.st0{fill:#5AF816;}
	.st1{fill:#0200E7;}
	.st2{fill:#A77427;}
	.st3{fill:#00B908;}
	.st4{fill:#A9038D;}
	.st5{fill:#FBFF73;}
	.st6{font-family:'ArialMT';}
	.st7{font-size:15.9963px;}
	.st8{fill:#F7F2D3;}
	.st9{fill:#C6F7CD;}
	.st10{fill:#5E5E2E;}
	.st11{fill:#242424;}
</style>
<rect x="-0.2" y="32" class="st0" width="300.5" height="227.3"/>
<polygon class="st1" points="79.5,123.7 48.8,123.7 18.1,123.7 20.9,120.3 18.1,117 48.8,117 79.5,117 82.3,120.3 "/>
<polygon class="st2" points="144.6,123.7 114,123.7 83.3,123.7 86,120.3 83.3,117 114,117 144.6,117 147.4,120.3 "/>
<polygon class="st3" points="209.8,123.7 179.1,123.7 148.4,123.7 151.2,120.3 148.4,117 179.1,117 209.8,117 212.6,120.3 "/>
<polygon class="st4" points="274.9,123.7 244.2,123.7 213.5,123.7 216.3,120.3 213.5,117 244.2,117 274.9,117 277.7,120.3 "/>
<path id="Color1" class="st2" d="M127.1,131.6c-1-0.1-3.3-0.4-3.8-1.5s-1.3-1.9-2.9-1.9s-2.5,0-2.5,0c-1.1,0-2.6,0.9-2.6,2.2
	s0,1.8,0,1.8c-0.4,0.4-1.1,0.9-1,2.9s-0.4,5.3-2.6,7.5c-2.3,2.2-8.6,7-7.9,14.4c-0.8,0.2-1.6-0.5-2.4-1.4c-0.6-0.7-1.4-0.3-0.9,0.8
	c1.1,1.3,5.4,4.8,10,2.5c-0.2,0.2-0.3,0.7,0.6,0.7h7.8c1.2-0.1,0.9-2,0.1-2s-3.1-0.1-4.1,0.2c0.4-0.4,2.6-2.1,2.6-3.5
	s-1.4-2.2-2.6-2.1c1-0.4,3.9-2,4.1-2.9c0.3,1,1.5,3,2.6,4s1,2.9,1.7,3.9c0.8,1,1.3,0.7,1.7,0.9c0.2,0.1,1.9,0,1.9,0
	c0.6-1,0-2.2-0.8-2.3s-1.1,0.2-1.5-0.8s-0.7-2.8-1-3.7c-0.4-0.9-0.7-2.4-1-2.9c0.3-0.8,1-5.7-1.1-7.6c0.5-0.5,1.8-0.6,2.2-1.1
	c0.4-0.5,0.7-1.6-0.5-2.3c0,0-0.2-1.4,0.4-1.6c0.6-0.1,1.2,0.5,2.3,0.5c1.1,0,2.3-1.2,2.6-2.2C128.8,133,129.6,131.7,127.1,131.6z"
	/>
<path class="st5" d="M195.7,100.1v2.8h-1.9v-2.8h-1.9v2.8H190v-2.8h-1.9V97c0-0.9-0.3-1.8-0.7-2.5l-8.3-13.7v-2.5h0.9
	c0.3,0,0.5-0.2,0.5-0.6c0-0.3-0.2-0.6-0.5-0.6h-0.9V76c0-0.3-0.2-0.6-0.5-0.6s-0.5,0.2-0.5,0.6v1.1h-0.9c-0.3,0-0.5,0.2-0.5,0.6
	c0,0.3,0.2,0.6,0.5,0.6h0.9v2.5l-8.3,13.7c-0.5,0.7-0.7,1.6-0.7,2.5v3.1h-1.9v2.8h-1.9v-2.8h-1.9v2.8h-1.9v-2.8h-1.9v11.4
	c0,1,0.8,1.9,1.9,1.9h7.6h0.9h17h0.9h7.6c1,0,1.9-0.8,1.9-1.9v-11.4C197.4,100.1,195.7,100.1,195.7,100.1z"/>
<text transform="matrix(1 0 0 1 3.2996 48.8464)" class="st6 st7">My weekend</text>
<rect x="36" y="233.3" class="st8" width="14.2" height="17.4"/>
<rect x="97" y="216.9" class="st2" width="14.2" height="33.8"/>
<rect x="164.4" y="144" class="st9" width="14.2" height="106.8"/>
<rect x="242.7" y="197.4" class="st9" width="14.2" height="53.4"/>
<path class="st10" d="M35,110h4.2c2.9,0,5.8,0.9,8.2,2.5l1,0.7c0.3,0.2,0.7,0.2,1,0l1-0.7c2.4-1.6,5.3-2.5,8.2-2.5h4.2
	c1,0,1.7-0.8,1.7-1.7l0,0V82.2c0-1-0.8-1.7-1.7-1.7l0,0h-3c-3.7,0-7.4,1.1-10.4,3.2c-0.3,0.2-0.7,0.2-1,0c-3.1-2.1-6.7-3.2-10.4-3.2
	h-3c-1,0-1.7,0.8-1.7,1.7l0,0v26.1C33.3,109.3,34.1,110,35,110L35,110L35,110z"/>
<path class="st11" d="M265.1,153.5h-5.6c3.9-2.7,6.4-7.1,6.4-12.2c0-8.1-6.6-14.7-14.7-14.7s-14.7,6.6-14.7,14.7
	c0,7.9,6.2,14.4,14.1,14.7c0.1,0,0.1,0,0.2,0h14.4c0.7,0,1.3-0.6,1.3-1.3C266.4,154.1,265.8,153.5,265.1,153.5z M248.4,131.8
	c1.6-1.6,4.1-1.6,5.7,0c1.6,1.6,1.6,4.1,0,5.7c-1.6,1.6-4.1,1.6-5.7,0C246.9,135.9,246.9,133.4,248.4,131.8z M241.7,144.3
	c-1.6-1.6-1.6-4.1,0-5.7c1.6-1.6,4.1-1.6,5.7,0c1.6,1.6,1.6,4.1,0,5.7C245.8,145.9,243.2,145.9,241.7,144.3z M254,150.9
	c-1.6,1.6-4.1,1.6-5.7,0c-1.6-1.6-1.6-4.1,0-5.7c1.6-1.6,4.1-1.6,5.7,0C255.5,146.8,255.5,149.4,254,150.9z M255.1,144.1
	c-1.6-1.6-1.6-4.1,0-5.7s4.1-1.6,5.7,0s1.6,4.1,0,5.7S256.6,145.7,255.1,144.1z"/>
</svg>
