<?xml version="1.0" encoding="iso-8859-1"?>
<!-- Generator: Adobe Illustrator 19.0.0, SVG Export Plug-In . SVG Version: 6.00 Build 0)  -->
<svg version="1.1" id="Layer_1" xmlns="http://www.w3.org/2000/svg" xmlns:xlink="http://www.w3.org/1999/xlink" x="0px" y="0px"
	 viewBox="0 0 485 485" style="enable-background:new 0 0 485 485;" xml:space="preserve">
<path d="M2.5,0v485h480V0H2.5z M452.5,91.538c-30.998-6.064-55.473-30.54-61.538-61.538H452.5V91.538z M165,275h-40.547
	c-6.64-47.572-44.381-85.313-91.953-91.953v-61.093c47.572-6.64,85.313-44.381,91.953-91.953H165V275z M195,30h95v245h-95V30z
	 M94.038,275H32.5v-61.538C63.498,219.527,87.973,244.002,94.038,275z M165,305v30H32.5v-30H165z M165,365v30H32.5v-30H165z
	 M195,305h95v150h-95V305z M320,365h132.5v30H320V365z M320,335v-30h132.5v30H320z M390.962,275
	c6.065-30.998,30.539-55.473,61.538-61.538V275H390.962z M360.547,275H320V30h40.547c6.64,47.572,44.381,85.313,91.953,91.953
	v61.093C404.928,189.687,367.187,227.428,360.547,275z M94.038,30C87.973,60.998,63.498,85.473,32.5,91.538V30H94.038z M32.5,425
	H165v30H32.5V425z M320,455v-30h132.5v30H320z"/>
<g>
</g>
<g>
</g>
<g>
</g>
<g>
</g>
<g>
</g>
<g>
</g>
<g>
</g>
<g>
</g>
<g>
</g>
<g>
</g>
<g>
</g>
<g>
</g>
<g>
</g>
<g>
</g>
<g>
</g>
</svg>
