<?xml version="1.0" standalone="no"?><!DOCTYPE svg PUBLIC "-//W3C//DTD SVG 1.1//EN" "http://www.w3.org/Graphics/SVG/1.1/DTD/svg11.dtd"><svg t="1587782560179" class="icon" viewBox="0 0 1024 1024" version="1.1" xmlns="http://www.w3.org/2000/svg" p-id="12716" xmlns:xlink="http://www.w3.org/1999/xlink" width="200" height="200"><defs><style type="text/css"></style></defs><path d="M78.560617 921.054844h131.656586a458.901761 458.901761 0 0 1 254.644425 76.935124l31.966002 21.13007a27.089832 27.089832 0 0 0 29.798816 0l31.966002-21.13007A458.901761 458.901761 0 0 1 813.778669 921.054844H945.435255a54.179665 54.179665 0 0 0 54.179665-54.179665V54.180207a54.179665 54.179665 0 0 0-54.179665-54.179665h-93.73082a585.682177 585.682177 0 0 0-325.077989 98.60699 27.089832 27.089832 0 0 1-29.798816 0A585.682177 585.682177 0 0 0 172.291437 0.000542H78.560617a54.179665 54.179665 0 0 0-54.179665 54.179665v812.694972a54.179665 54.179665 0 0 0 54.179665 54.179665z" fill="#dbdbdb" p-id="12717" data-spm-anchor-id="a313x.7781069.0.i19" class=""></path><path d="M945.435255 0.000542h-93.73082a585.682177 585.682177 0 0 0-325.077989 98.065193 27.089832 27.089832 0 0 1-14.62851 4.87617v921.054302a27.089832 27.089832 0 0 0 15.170306-4.334373l31.966002-21.130069a458.901761 458.901761 0 0 1 254.644425-77.476921H945.435255a54.179665 54.179665 0 0 0 54.179665-54.179665V54.180207a54.179665 54.179665 0 0 0-54.179665-54.179665z" fill="#dbdbdb" p-id="12718" data-spm-anchor-id="a313x.7781069.0.i18" class=""></path></svg>