<?xml version="1.0" encoding="iso-8859-1"?>
<!-- Generator: Adobe Illustrator 19.0.0, SVG Export Plug-In . SVG Version: 6.00 Build 0)  -->
<svg version="1.1" id="Layer_1" xmlns="http://www.w3.org/2000/svg" xmlns:xlink="http://www.w3.org/1999/xlink" x="0px" y="0px"
	 viewBox="0 0 485 485" style="enable-background:new 0 0 485 485;" xml:space="preserve">
<g>
	<path d="M265.894,162.734h30c0-24.234-16.234-44.734-38.394-51.234v-9.992h-30v9.992c-22.159,6.499-38.393,27-38.393,51.234
		c0,25.239,13.246,43.323,37.297,50.92l1.096,0.346v47.216c-5.126-4.295-8.393-10.739-8.393-17.933h-30
		c0,24.233,16.234,44.734,38.393,51.234v9.992h30v-9.992c22.16-6.499,38.394-27,38.394-51.234c0-25.239-13.246-43.323-37.297-50.92
		l-1.096-0.346v-47.216C262.626,149.095,265.894,155.539,265.894,162.734z M219.107,162.734c0-7.195,3.267-13.639,8.393-17.933
		v36.586C221.639,177.453,219.107,171.619,219.107,162.734z M265.894,243.283c0,7.195-3.267,13.639-8.394,17.934V224.63
		C263.361,228.564,265.894,234.398,265.894,243.283z"/>
	<path d="M427.052,406.017V0H57.948v485h369.104v-30h-20v-48.983H427.052z M87.948,30h309.104v346.017H87.948V30z M377.052,455
		H87.948v-48.983h289.104V455z"/>
</g>
<g>
</g>
<g>
</g>
<g>
</g>
<g>
</g>
<g>
</g>
<g>
</g>
<g>
</g>
<g>
</g>
<g>
</g>
<g>
</g>
<g>
</g>
<g>
</g>
<g>
</g>
<g>
</g>
<g>
</g>
</svg>
