<?xml version="1.0" standalone="no"?><!DOCTYPE svg PUBLIC "-//W3C//DTD SVG 1.1//EN" "http://www.w3.org/Graphics/SVG/1.1/DTD/svg11.dtd"><svg t="1587780179913" class="icon" viewBox="0 0 1024 1024" version="1.1" xmlns="http://www.w3.org/2000/svg" p-id="9317" xmlns:xlink="http://www.w3.org/1999/xlink" width="200" height="200"><defs><style type="text/css"></style></defs><path d="M204.8 665.6v76.8H153.6v-76.8H102.4v76.8H51.2v-76.8H0v307.2a51.2 51.2 0 0 0 51.2 51.2h230.4V665.6zM819.2 665.6v76.8h51.2v-76.8h51.2v76.8h51.2v-76.8h51.2v307.2a51.2 51.2 0 0 1-51.2 51.2h-230.4V665.6z" fill="#8a8a8a" p-id="9318"></path><path d="M748.8 435.2L524.8 120.32V64h25.6a12.8 12.8 0 0 0 0-25.6h-25.6v-25.6a12.8 12.8 0 0 0-25.6 0v25.6h-25.6a12.8 12.8 0 0 0 0 25.6h25.6v56.32L275.2 435.2a102.4 102.4 0 0 0-19.2 58.368V870.4h512V493.568a102.4 102.4 0 0 0-19.2-58.368z" fill="#8a8a8a" p-id="9319"></path><path d="M256 870.4h512v153.6H256z" fill="#8a8a8a" p-id="9320"></path><path d="M571.904 424.96A70.912 70.912 0 0 0 512 458.752a70.912 70.912 0 0 0-59.904-33.792 57.856 57.856 0 0 0-59.648 61.44A102.4 102.4 0 0 0 435.2 563.2a269.824 269.824 0 0 0 76.8 40.96 269.824 269.824 0 0 0 76.8-40.96 102.4 102.4 0 0 0 42.752-76.8 57.856 57.856 0 0 0-59.648-61.44z" fill="#8a8a8a" p-id="9321"></path><path d="M628.224 464.384a56.32 56.32 0 0 0-56.32-39.424A70.912 70.912 0 0 0 512 458.752a70.912 70.912 0 0 0-59.904-33.792 57.856 57.856 0 0 0-59.648 61.44A102.4 102.4 0 0 0 435.2 563.2c4.608 3.84 9.472 7.168 14.336 10.496h3.84c86.272 0.256 158.72-46.848 174.848-109.312z" fill="#8a8a8a" p-id="9322"></path><path d="M419.84 464.64m-6.912 0a6.912 6.912 0 1 0 13.824 0 6.912 6.912 0 1 0-13.824 0Z" fill="#8a8a8a" p-id="9323"></path><path d="M409.6 486.4c1.536-8.448 7.424-10.24 10.24-6.656s-2.048 8.704 1.792 26.88a260.608 260.608 0 0 0 9.984 30.976c0 3.328-12.544-10.752-18.688-25.6a51.2 51.2 0 0 1-3.328-25.6z" fill="#8a8a8a" p-id="9324"></path></svg>