<?xml version="1.0" encoding="iso-8859-1"?>
<!-- Generator: Adobe Illustrator 19.0.0, SVG Export Plug-In . SVG Version: 6.00 Build 0)  -->
<svg version="1.1" id="Layer_1" xmlns="http://www.w3.org/2000/svg" xmlns:xlink="http://www.w3.org/1999/xlink" x="0px" y="0px"
	 viewBox="0 0 485 485" style="enable-background:new 0 0 485 485;" xml:space="preserve">
<g>
	<path d="M140,233.793c46.299,0,83.965-37.667,83.965-83.966S186.299,65.862,140,65.862s-83.965,37.667-83.965,83.966
		S93.701,233.793,140,233.793z M140,95.862c29.757,0,53.965,24.209,53.965,53.966S169.757,203.793,140,203.793
		s-53.965-24.209-53.965-53.966S110.243,95.862,140,95.862z"/>
	<path d="M345,233.793c46.299,0,83.966-37.667,83.966-83.966S391.299,65.862,345,65.862s-83.966,37.667-83.966,83.966
		S298.701,233.793,345,233.793z M345,95.862c29.757,0,53.966,24.209,53.966,53.966S374.757,203.793,345,203.793
		s-53.966-24.209-53.966-53.966S315.243,95.862,345,95.862z"/>
	<path d="M345,264.138c-39.13,0-76.233,16.42-102.542,44.688c-25.578-27.478-62.045-44.688-102.458-44.688
		c-77.196,0-140,62.804-140,140v15h485v-15C485,326.942,422.196,264.138,345,264.138z M31.019,389.138
		c6.666-48.679,45.302-87.311,93.981-93.978v68.978h30V295.16c48.678,6.666,87.315,45.299,93.981,93.978H31.019z M279.202,389.138
		c-2.157-20.164-8.613-39.06-18.431-55.753c17.587-20.904,42.315-34.502,69.229-38.215v68.969h30V295.16
		c48.678,6.666,87.315,45.299,93.981,93.978H279.202z"/>
</g>
<g>
</g>
<g>
</g>
<g>
</g>
<g>
</g>
<g>
</g>
<g>
</g>
<g>
</g>
<g>
</g>
<g>
</g>
<g>
</g>
<g>
</g>
<g>
</g>
<g>
</g>
<g>
</g>
<g>
</g>
</svg>
