<?xml version="1.0" standalone="no"?><!DOCTYPE svg PUBLIC "-//W3C//DTD SVG 1.1//EN" "http://www.w3.org/Graphics/SVG/1.1/DTD/svg11.dtd"><svg t="1587783196977" class="icon" viewBox="0 0 1024 1024" version="1.1" xmlns="http://www.w3.org/2000/svg" p-id="7474" xmlns:xlink="http://www.w3.org/1999/xlink" width="200" height="200"><defs><style type="text/css"></style></defs><path d="M262.297769 541.711692a46 46 0 1 0 65.052688-65.054959 46 46 0 1 0-65.052688 65.054959Z" fill="#242424" p-id="7475"></path><path d="M478.798651 325.156407a45.8 45.8 0 1 0 64.769851-64.772112 45.8 45.8 0 1 0-64.769851 64.772112Z" fill="#242424" p-id="7476"></path><path d="M474.064294 753.968294a46.3 46.3 0 1 0 65.476945-65.479231 46.3 46.3 0 1 0-65.476945 65.479231Z" fill="#242424" p-id="7477"></path><path d="M690.49476 537.484427a46.2 46.2 0 1 0 65.335526-65.337806 46.2 46.2 0 1 0-65.335526 65.337806Z" fill="#242424" p-id="7478"></path><path d="M952 894.5H773.9c123.6-84.6 204.7-226.8 204.7-388 0-259.5-210.4-469.9-469.9-469.9S38.9 247 38.9 506.5c0 252.4 199 458.3 448.7 469.4 2 0.3 4.1 0.5 6.3 0.5H952c22.6 0 41-18.3 41-41-0.1-22.6-18.4-40.9-41-40.9zM420.5 202.2c50.1-50.1 131.2-50.1 181.3 0s50.1 131.2 0 181.3-131.2 50.1-181.3 0c-50-50.1-50-131.3 0-181.3zM204.2 599.8c-50.1-50.1-50.1-131.2 0-181.3 50.1-50.1 131.2-50.1 181.3 0 50.1 50.1 50.1 131.2 0 181.3-50.1 50.1-131.3 50.1-181.3 0z m393.3 212c-50.1 50.1-131.2 50.1-181.3 0-50.1-50.1-50.1-131.2 0-181.3 50.1-50.1 131.2-50.1 181.3 0 50 50.1 50 131.3 0 181.3z m35.1-216.3c-50.1-50.1-50.1-131.2 0-181.3 50.1-50.1 131.2-50.1 181.3 0 50.1 50.1 50.1 131.2 0 181.3-50.1 50-131.3 50-181.3 0z" fill="#242424" p-id="7479"></path></svg>