<?xml version="1.0" encoding="iso-8859-1"?>
<!-- Generator: Adobe Illustrator 19.0.0, SVG Export Plug-In . SVG Version: 6.00 Build 0)  -->
<svg version="1.1" id="Layer_1" xmlns="http://www.w3.org/2000/svg" xmlns:xlink="http://www.w3.org/1999/xlink" x="0px" y="0px"
	 viewBox="0 0 485 485" style="enable-background:new 0 0 485 485;" xml:space="preserve">
<g>
	<path d="M154.582,319.573h18.598V485H311.82V319.573h18.598V121.03H154.582V319.573z M184.582,151.03H227.5v93.543h30V151.03
		h42.918v138.543H281.82V455H203.18V289.573h-18.598V151.03z"/>
	<path d="M242.5,100.989c27.843,0,50.494-22.652,50.494-50.495S270.343,0,242.5,0s-50.494,22.651-50.494,50.494
		S214.657,100.989,242.5,100.989z M242.5,30c11.301,0,20.494,9.194,20.494,20.494c0,11.301-9.193,20.495-20.494,20.495
		s-20.494-9.194-20.494-20.495C222.006,39.194,231.199,30,242.5,30z"/>
	<path d="M366.402,121.03V485h100V319.573H485V121.03H366.402z M455,289.573h-18.598V455h-40V151.03H455V289.573z"/>
	<path d="M416.896,100.989c27.843,0,50.494-22.652,50.494-50.495S444.739,0,416.896,0s-50.494,22.651-50.494,50.494
		S389.054,100.989,416.896,100.989z M416.896,30c11.301,0,20.494,9.194,20.494,20.494c0,11.301-9.193,20.495-20.494,20.495
		s-20.494-9.194-20.494-20.495C396.402,39.194,405.596,30,416.896,30z"/>
	<path d="M0,319.573h18.598V485h100V121.03H0V319.573z M30,151.03h58.598V455h-40V289.573H30V151.03z"/>
	<path d="M68.104,0C40.261,0,17.609,22.651,17.609,50.494s22.651,50.495,50.494,50.495s50.494-22.652,50.494-50.495
		S95.946,0,68.104,0z M68.104,70.989c-11.301,0-20.494-9.194-20.494-20.495c0-11.3,9.193-20.494,20.494-20.494
		s20.494,9.194,20.494,20.494C88.598,61.795,79.404,70.989,68.104,70.989z"/>
</g>
<g>
</g>
<g>
</g>
<g>
</g>
<g>
</g>
<g>
</g>
<g>
</g>
<g>
</g>
<g>
</g>
<g>
</g>
<g>
</g>
<g>
</g>
<g>
</g>
<g>
</g>
<g>
</g>
<g>
</g>
</svg>
