<?xml version="1.0" encoding="iso-8859-1"?>
<!-- Generator: Adobe Illustrator 19.0.0, SVG Export Plug-In . SVG Version: 6.00 Build 0)  -->
<svg version="1.1" id="Layer_1" xmlns="http://www.w3.org/2000/svg" xmlns:xlink="http://www.w3.org/1999/xlink" x="0px" y="0px"
	 viewBox="0 0 485 485" style="enable-background:new 0 0 485 485;" xml:space="preserve">
<g>
	<path d="M255,300.125c41.631,0,75.5-33.869,75.5-75.5s-33.869-75.5-75.5-75.5s-75.5,33.869-75.5,75.5S213.369,300.125,255,300.125z
		 M255,179.125c25.089,0,45.5,20.411,45.5,45.5s-20.411,45.5-45.5,45.5s-45.5-20.411-45.5-45.5S229.911,179.125,255,179.125z"/>
	<path d="M255,240.125c8.547,0,15.5-6.953,15.5-15.5s-6.953-15.5-15.5-15.5s-15.5,6.953-15.5,15.5S246.453,240.125,255,240.125z"/>
	<path d="M32.5,0v60h-25v30h25v269.25h-25v30h25v60h30V485h30v-35.75h325V485h30v-35.75h30V0H32.5z M447.5,419.25h-385V30h385
		V419.25z"/>
	<path d="M417.5,60h-325v329.25h325V60z M387.5,359.25h-265V90h265V359.25z"/>
</g>
<g>
</g>
<g>
</g>
<g>
</g>
<g>
</g>
<g>
</g>
<g>
</g>
<g>
</g>
<g>
</g>
<g>
</g>
<g>
</g>
<g>
</g>
<g>
</g>
<g>
</g>
<g>
</g>
<g>
</g>
</svg>
