<?xml version="1.0" encoding="iso-8859-1"?>
<!-- Generator: Adobe Illustrator 19.0.0, SVG Export Plug-In . SVG Version: 6.00 Build 0)  -->
<svg version="1.1" id="Layer_1" xmlns="http://www.w3.org/2000/svg" xmlns:xlink="http://www.w3.org/1999/xlink" x="0px" y="0px"
	 viewBox="0 0 485 485" style="enable-background:new 0 0 485 485;" xml:space="preserve">
<g>
	<path d="M15.951,319.573h18.598V485h138.641V319.573h18.599V121.03H15.951V319.573z M45.951,151.03h42.918v93.542h30V151.03h42.919
		v138.542h-18.599V455H64.549V289.573H45.951V151.03z"/>
	<path d="M103.869,100.989c27.843,0,50.494-22.652,50.494-50.494S131.712,0,103.869,0S53.375,22.652,53.375,50.494
		S76.026,100.989,103.869,100.989z M103.869,30c11.301,0,20.494,9.194,20.494,20.494s-9.193,20.494-20.494,20.494
		s-20.494-9.194-20.494-20.494S92.568,30,103.869,30z"/>
	<path d="M419.147,99.803c27.516,0,49.901-22.386,49.901-49.901C469.049,22.386,446.663,0,419.147,0s-49.901,22.386-49.901,49.902
		C369.246,77.417,391.632,99.803,419.147,99.803z M419.147,30c10.974,0,19.901,8.928,19.901,19.902
		c0,10.974-8.928,19.901-19.901,19.901s-19.901-8.928-19.901-19.901C399.246,38.928,408.174,30,419.147,30z"/>
	<path d="M419.147,385.197c-27.516,0-49.901,22.386-49.901,49.901c0,27.516,22.386,49.902,49.901,49.902
		s49.901-22.386,49.901-49.902C469.049,407.583,446.663,385.197,419.147,385.197z M419.147,455
		c-10.974,0-19.901-8.928-19.901-19.902c0-10.974,8.928-19.901,19.901-19.901s19.901,8.928,19.901,19.901
		C439.049,446.072,430.121,455,419.147,455z"/>
	<path d="M419.147,256.798c-27.516,0-49.901,22.386-49.901,49.901c0,27.516,22.386,49.902,49.901,49.902
		s49.901-22.386,49.901-49.902C469.049,279.184,446.663,256.798,419.147,256.798z M419.147,326.601
		c-10.974,0-19.901-8.928-19.901-19.902c0-10.974,8.928-19.901,19.901-19.901s19.901,8.928,19.901,19.901
		C439.049,317.673,430.121,326.601,419.147,326.601z"/>
	<path d="M419.147,128.399c-27.516,0-49.901,22.386-49.901,49.902c0,27.516,22.386,49.901,49.901,49.901
		s49.901-22.386,49.901-49.901C469.049,150.785,446.663,128.399,419.147,128.399z M419.147,198.202
		c-10.974,0-19.901-8.928-19.901-19.901c0-10.974,8.928-19.902,19.901-19.902s19.901,8.928,19.901,19.902
		C439.049,189.274,430.121,198.202,419.147,198.202z"/>
	<polygon points="266.517,227.5 226.787,227.5 226.787,257.5 266.517,257.5 266.517,450.098 336.246,450.098 336.246,420.098 
		296.517,420.098 296.517,321.699 336.246,321.699 336.246,291.699 296.517,291.699 296.517,193.301 336.246,193.301 
		336.246,163.301 296.517,163.301 296.517,64.902 336.246,64.902 336.246,34.902 266.517,34.902 	"/>
</g>
<g>
</g>
<g>
</g>
<g>
</g>
<g>
</g>
<g>
</g>
<g>
</g>
<g>
</g>
<g>
</g>
<g>
</g>
<g>
</g>
<g>
</g>
<g>
</g>
<g>
</g>
<g>
</g>
<g>
</g>
</svg>
