<?xml version="1.0" encoding="iso-8859-1"?>
<!-- Generator: Adobe Illustrator 19.0.0, SVG Export Plug-In . SVG Version: 6.00 Build 0)  -->
<svg version="1.1" id="Layer_1" xmlns="http://www.w3.org/2000/svg" xmlns:xlink="http://www.w3.org/1999/xlink" x="0px" y="0px"
	 viewBox="0 0 485 485" style="enable-background:new 0 0 485 485;" xml:space="preserve">
<g>
	<path d="M382.231,326.474l-9.483-136.134l37.245-59.517V0h-91.075v40.535h-30.88V0h-91.075v40.535h-30.879V0H75.007v130.823
		l37.245,59.517l-9.483,136.134l-35.481,60.479V485h350.425v-98.047L382.231,326.474z M141.546,201.517h201.907l7.977,114.512
		H133.569L141.546,201.517z M349.137,171.517H135.863l-18.773-30h250.822L349.137,171.517z M136.083,30v40.535h90.879V30h31.075
		v40.535h90.88V30h31.075v81.517H105.007V30H136.083z M126.079,346.028h232.843l17.6,30H108.479L126.079,346.028z M97.288,455
		v-48.972h290.425V455H97.288z"/>
</g>
<g>
</g>
<g>
</g>
<g>
</g>
<g>
</g>
<g>
</g>
<g>
</g>
<g>
</g>
<g>
</g>
<g>
</g>
<g>
</g>
<g>
</g>
<g>
</g>
<g>
</g>
<g>
</g>
<g>
</g>
</svg>
