<?xml version="1.0" encoding="utf-8"?>
<!-- Generator: Adobe Illustrator 14.0.0, SVG Export Plug-In . SVG Version: 6.00 Build 43363)  -->
<!DOCTYPE svg PUBLIC "-//W3C//DTD SVG 1.1//EN" "http://www.w3.org/Graphics/SVG/1.1/DTD/svg11.dtd">
<svg version="1.1" id="Layer_1" xmlns="http://www.w3.org/2000/svg" xmlns:xlink="http://www.w3.org/1999/xlink" x="0px" y="0px"
	 width="67.443px" height="74.154px" viewBox="0 0 67.443 74.154" enable-background="new 0 0 67.443 74.154" xml:space="preserve">
<path id="Color1" style="fill:#A060C6;" d="M63.208,7.938c-2.269-0.142-7.796-0.992-8.931-3.544C53.144,1.842,51.16,0,47.474,0c-3.686,0-5.812,0-5.812,0
	c-2.692,0-6.095,2.126-6.095,5.102c0,2.979,0,4.252,0,4.252c-0.991,0.992-2.552,2.126-2.409,6.946
	c0.142,4.82-0.851,12.616-6.238,17.718C21.534,39.122,6.652,50.462,8.21,67.896c-1.842,0.427-3.826-1.134-5.67-3.26
	c-1.452-1.676-3.402-0.708-2.126,1.842c2.552,3.12,12.758,11.34,23.529,5.813c-0.424,0.426-0.708,1.56,1.418,1.56h18.427
	c2.836-0.142,2.128-4.678,0.142-4.678c-1.984,0-7.228-0.284-9.78,0.426c0.851-0.992,6.236-4.962,6.236-8.364
	c0-3.401-3.26-5.102-6.236-4.96c2.269-0.852,9.214-4.819,9.78-6.945c0.71,2.268,3.544,7.086,6.096,9.496
	c2.553,2.409,2.269,6.804,4.11,9.214c1.844,2.41,2.978,1.702,4.112,2.126c0.424,0.142,4.536,0,4.536,0
	c1.416-2.41,0-5.103-1.986-5.387c-1.984-0.283-2.692,0.427-3.544-1.983c-0.851-2.41-1.559-6.662-2.408-8.788
	c-0.852-2.128-1.56-5.67-2.268-6.946c0.708-1.844,2.407-13.466-2.553-18.002c1.135-1.275,4.252-1.418,5.244-2.694
	c0.992-1.275,1.702-3.684-1.275-5.386c0,0-0.566-3.401,0.852-3.686c1.416-0.282,2.834,1.134,5.528,1.134
	c2.691,0,5.403-2.912,6.235-5.244C67.32,11.198,69.162,8.08,63.208,7.938z"/>
</svg>
