<?xml version="1.0" encoding="iso-8859-1"?>
<!-- Generator: Adobe Illustrator 19.0.0, SVG Export Plug-In . SVG Version: 6.00 Build 0)  -->
<svg version="1.1" id="Layer_1" xmlns="http://www.w3.org/2000/svg" xmlns:xlink="http://www.w3.org/1999/xlink" x="0px" y="0px"
	 viewBox="0 0 485 485" style="enable-background:new 0 0 485 485;" xml:space="preserve">
<g>
	<path d="M485,355V0H80C35.888,0,0,35.888,0,80v325c0,44.112,35.888,80,80,80h365V355H485z M30,405c0-27.57,22.43-50,50-50h335v35
		H80v30h335v35H80C52.43,455,30,432.57,30,405z M455,234.75H257.5v-114.5H455V234.75z M455,325H80c-18.903,0-36.294,6.589-50,17.592
		V80c0-27.57,22.43-50,50-50h375v60.25H227.5v174.5H455V325z"/>
	<path d="M314.75,152.5c13.785,0,25,11.215,25,25s-11.215,25-25,25s-25-11.215-25-25S300.965,152.5,314.75,152.5z"/>
</g>
<g>
</g>
<g>
</g>
<g>
</g>
<g>
</g>
<g>
</g>
<g>
</g>
<g>
</g>
<g>
</g>
<g>
</g>
<g>
</g>
<g>
</g>
<g>
</g>
<g>
</g>
<g>
</g>
<g>
</g>
</svg>
