<svg xmlns="http://www.w3.org/2000/svg" xmlns:xlink="http://www.w3.org/1999/xlink" version="1.1" id="Layer_1" x="0px" y="0px" viewBox="0 0 250 250" style="enable-background:new 0 0 250 250;" xml:space="preserve"><svg id="rzone" overflow="hidden" height="250"><g id="repeat_1" width="132" x="30"><rect xmlns="http://www.w3.org/2000/svg" id="Color1_1_" x="30" y="0" style="fill:#C0C8DC;" width="140" height="250"/></g></svg><g id="alignright" width="89"><path id="Color1" style="fill:#C0C8DC;" d="M162.3,250c6.2,0,12-3.1,15.4-8.3l35.2-54.2l34.3-52.8c3.8-5.9,3.8-13.5,0-19.4   l-34.3-52.8L177.7,8.3c-3.4-5.2-9.1-8.3-15.4-8.3l-1.8,0l0,250H162.3z"/></g><path id="Color1_2_" style="fill:#C0C8DC;" d="M0,18l0,214c0,9.9,8.2,18,18.2,18h12.3V0L18.2,0C8.2,0,0,8.1,0,18z"/></svg>