<svg xmlns="http://www.w3.org/2000/svg" xmlns:xlink="http://www.w3.org/1999/xlink" xmlns:a="http://ns.adobe.com/AdobeSVGViewerExtensions/3.0/" version="1.1" x="0px" y="0px" viewBox="0 0 250 250" style="enable-background:new 0 0 250 250;" xml:space="preserve"><defs></defs><polygon id="Color1_1_" style="fill:#A58FC3;" points="125,11.1 132.9,0 139.2,12 148.4,2 153.3,14.7 163.6,5.9 166.8,19.1   178.2,11.6 179.7,25.2 192,19.2 191.8,32.8 204.7,28.4 202.8,41.9 216.1,39.2 212.6,52.3 226.1,51.3 220.9,63.9 234.5,64.5   227.8,76.4 241.2,78.7 233.1,89.6 246.1,93.7 236.6,103.5 249,109.1 238.4,117.6 250,124.8 238.4,131.9 249,140.4 236.6,146   246.1,155.8 233.1,159.9 241.2,170.8 227.8,173.1 234.5,185 220.9,185.6 226.1,198.2 212.6,197.2 216.1,210.3 202.8,207.6   204.7,221.1 191.8,216.7 192,230.3 179.7,224.3 178.2,237.9 166.8,230.4 163.6,243.6 153.3,234.8 148.4,247.5 139.2,237.5   132.9,249.5 125,238.4 117.2,249.5 110.8,237.5 101.6,247.5 96.7,234.8 86.4,243.6 83.2,230.4 71.8,237.9 70.3,224.3 58,230.3   58.2,216.7 45.3,221.1 47.2,207.6 33.9,210.3 37.4,197.2 23.9,198.2 29.1,185.6 15.5,185 22.2,173.1 8.8,170.8 16.9,159.9   3.9,155.8 13.4,146 1,140.4 11.6,131.9 0,124.8 11.6,117.6 1,109.1 13.4,103.5 3.9,93.7 16.9,89.6 8.8,78.7 22.2,76.4 15.5,64.5   29.1,63.9 23.9,51.3 37.4,52.3 33.9,39.2 47.2,41.9 45.3,28.4 58.2,32.8 58,19.2 70.3,25.2 71.8,11.6 83.2,19.1 86.4,5.9 96.7,14.7   101.6,2 110.8,12 117.2,0 "/></svg>